<?xml version="1.0" encoding="UTF-8"?>
<!DOCTYPE svg PUBLIC "-//W3C//DTD SVG 1.1//EN" "http://www.w3.org/Graphics/SVG/1.1/DTD/svg11.dtd">
<!-- Creator: CorelDRAW 2019 (64-Bit) -->
<svg xmlns="http://www.w3.org/2000/svg" xml:space="preserve" width="124.178mm" height="169.333mm" version="1.1" style="shape-rendering:geometricPrecision; text-rendering:geometricPrecision; image-rendering:optimizeQuality; fill-rule:evenodd; clip-rule:evenodd"
viewBox="0 0 7334.89 10002.13"
 xmlns:xlink="http://www.w3.org/1999/xlink">
 <defs>
  <style type="text/css">
   <![CDATA[
    .fil3 {fill:#185ABD}
    .fil2 {fill:#69B0BB}
    .fil1 {fill:#DDE3F0}
    .fil0 {fill:white}
   ]]>
  </style>
 </defs>
 <g id="Ebene_x0020_1">
  <metadata id="CorelCorpID_0Corel-Layer"/>
  <g id="_2190746256896">
   <path class="fil0" d="M7168.19 9835.42l-7001.49 0 0 -8001.69 1667.02 0 0 -1667.02 5334.46 0 0 9668.71zm0 0z"/>
   <path class="fil0" d="M3510.43 2500.53l3657.76 0 0 4667.66 -3657.76 0c-1202.24,0 -2176.81,-974.57 -2176.81,-2176.81l0 -314.03c0,-1202.24 974.57,-2176.81 2176.81,-2176.81l0 0.01zm0 0z"/>
   <path class="fil1" d="M1833.73 1833.73l-1667.02 0 1667.02 -1667.02 0.01 1667.02zm0 0z"/>
   <path class="fil1" d="M6001.27 5167.76l0 -666.81 -740.64 -148.06c-31.18,-106.22 -72.85,-209.11 -124.54,-307.03l416.76 -625.95 -471.62 -471.62 -625.95 416.76c-98.01,-52.66 -201.05,-95.32 -307.6,-127.23l-146.84 -737.3 -666.8 0.01 -147.49 737.95c-106.14,32.4 -208.62,75.29 -306.14,128.2l-627.41 -418.38 -471.62 471.62 416.76 625.95c-52.34,98.01 -94.67,200.97 -126.33,307.36l-738.19 147.73 0 666.81 737.95 147.49c31.91,106.63 74.56,209.68 127.23,307.6l-416.76 625.95 471.62 471.62 625.95 -416.76c97.92,51.69 200.81,93.36 307.11,124.54l147.33 739.98 666.8 0 148.06 -740.64c106.22,-31.18 209.11,-72.85 307.03,-124.54l625.95 416.76 471.62 -471.62 -416.76 -625.95c52.66,-98.01 95.32,-201.05 127.23,-307.6l737.29 -146.84zm-2333.83 333.41c-368.24,0 -666.81,-298.56 -666.81,-666.81 0,-368.25 298.56,-666.81 666.81,-666.81 368.25,0 666.81,298.56 666.81,666.81 0,368.25 -298.56,666.81 -666.81,666.81zm0 0z"/>
   <path class="fil1" d="M1333.62 8001.7l4667.66 0 0 333.4 -4667.66 0 0 -333.4zm0 0z"/>
   <path class="fil2" d="M7168.19 7334.89l-3606.23 0c-1322.14,-1.38 -2393.57,-1072.74 -2395.04,-2394.87l0 -211.31c1.46,-1322.14 1072.9,-2393.49 2395.04,-2394.87l3606.23 0 0 333.4 -3606.23 0c-1138.02,1.3 -2060.25,923.45 -2061.63,2061.47l0 211.31c1.38,1138.02 923.62,2060.17 2061.63,2061.47l3606.23 0 0 333.4zm0 0z"/>
   <path class="fil3" d="M-0 9835.42c0,92.06 74.64,166.7 166.7,166.7l7001.49 0.01c92.06,0 166.7,-74.64 166.7,-166.7l0 -9668.72c0,-92.06 -74.64,-166.7 -166.7,-166.7l-5334.46 -0.01c-3.17,0 -5.86,1.63 -9.04,1.87 -15.87,0.82 -31.5,3.99 -46.48,9.28 -4.8,1.71 -9.52,3.01 -14,5.04 -17.66,7.81 -33.86,18.64 -47.7,32.15l-1667.02 1667.02c-13.18,13.84 -23.93,29.87 -31.83,47.37 -2.11,5.04 -3.9,10.34 -5.45,15.63 -5.04,14.16 -8.06,28.98 -9.04,44.03 0,3.66 -2.04,6.67 -2.04,10.34l-1.14 8002.68zm7001.48 -2833.93l-2797.22 0 89.13 -445.73c52.82,-18.72 102.72,-38.67 150.01,-60.56l546.02 363.93c66.1,44.03 154,35.25 210.17,-20.84l471.62 -471.62c56.08,-56.16 64.87,-144.07 20.84,-210.17l-363.6 -545.44c22.87,-50.06 43.88,-100.04 62.35,-151.24l643.86 -128.69c77.57,-15.87 133.33,-84.17 133.33,-163.36l0 -666.81c0,-79.2 -55.76,-147.49 -133.33,-163.36l-645.15 -129.18c-18.72,-52.91 -38.83,-102.97 -60.56,-150.01l363.93 -546.02c44.03,-66.1 35.33,-154 -20.84,-210.17l-471.62 -471.62c-56.16,-56.08 -144.07,-64.87 -210.17,-20.84l-545.44 363.6c-49.24,-23.04 -99.63,-43.79 -151.24,-62.35l-89.29 -443.78 2797.21 0.01 0 4334.25zm-4043.66 -845.15c-54.29,-29.14 -120.14,-26.05 -171.42,8.14l-512.23 341.22 -278.21 -278.21 341.38 -512.07c34.19,-51.28 37.28,-117.13 8.14,-171.42 -47.21,-88.15 -85.46,-180.87 -114.36,-276.67 -17.74,-58.93 -66.5,-103.29 -126.82,-115.42l-570.59 -114.12c-10.09,-2.11 -20.27,-3.25 -30.53,-3.34 -2.85,-31.18 -2.85,-62.84 -2.85,-94.42l0 -211.31c0,-31.58 0,-63.24 2.2,-94.42 10.25,-0.08 20.43,-1.22 30.44,-3.34l572.14 -114.28c60.31,-12.13 109.15,-56.49 126.9,-115.42 28.49,-95.64 66.5,-188.11 113.47,-276.18 29.3,-54.29 26.21,-120.23 -7.97,-171.59l-341.54 -512.23 278.21 -278.21 513.78 342.2c51.12,34.19 116.97,37.36 171.18,8.38 87.66,-47.62 179.97,-86.28 275.37,-115.42 59.01,-17.74 103.37,-66.58 115.42,-126.98l114.12 -570.59c2.04,-10.09 3.17,-20.27 3.34,-30.53 31.34,-1.55 62.84,-2.2 94.59,-2.2l302.21 0 120.79 603.97c12.13,60.31 56.49,109.15 115.42,126.9 95.73,28.81 188.35,67.07 276.51,114.36 54.37,28.98 120.23,25.8 171.59,-8.22l512.23 -341.22 278.21 278.21 -341.38 512.15c-34.19,51.2 -37.28,117.05 -8.14,171.34 46.23,87.91 83.59,180.22 111.68,275.53 17.74,58.85 66.42,103.13 126.65,115.18l606.82 121.37 0 393.8 -603.97 120.63c-60.31,12.13 -109.07,56.49 -126.82,115.42 -28.9,95.81 -67.15,188.51 -114.36,276.67 -29.14,54.29 -26.05,120.14 8.14,171.42l341.38 512.07 -278.21 278.21 -512.23 -341.22c-51.2,-34.43 -117.21,-37.61 -171.42,-8.14 -88.15,46.23 -180.7,83.59 -276.18,111.68 -58.85,17.74 -103.13,66.42 -115.18,126.65l-121.53 606.82 -302.24 0c-31.74,0 -63.24,0 -94.59,-2.2 -0.17,-10.25 -1.3,-20.43 -3.34,-30.44l-114.69 -574.01c-12.04,-60.23 -56.33,-108.91 -115.18,-126.65 -95.56,-28.08 -188.19,-65.61 -276.34,-111.84l0 -0.01zm163.36 797.77c-204.23,-44.77 -400.31,-120.47 -581.67,-224.49l351.8 -234.42c47.45,21.9 97.35,41.84 150.01,60.56l79.85 398.35zm-1349.16 -991.66c-103.95,-181.36 -179.64,-377.6 -224.33,-581.83l396.24 79.2c18.48,51.69 39.47,101.99 62.35,151.24l-234.26 351.39zm-224.33 -1674.34c44.68,-204.23 120.39,-400.47 224.33,-581.83l234.42 351.72c-22.22,48.68 -42.89,98.74 -61.86,150.1l-396.89 80.01zm991.83 -1349c181.36,-104.02 377.44,-179.73 581.67,-224.49l-79.2 396.57c-49.98,18.32 -100.04,39.23 -150.01,62.84l-352.46 -234.91zm-872.5 -2369.97l0 1097.89 -1097.88 0 1097.88 -1097.89zm-1333.61 1431.29l1500.32 0c92.06,0 166.7,-74.64 166.7,-166.7l0 -1500.32 5001.06 0 0 2000.43 -3439.53 0c-1322.14,1.38 -2393.57,1072.74 -2395.04,2394.87l0 211.31c1.46,1322.14 1072.9,2393.49 2395.04,2394.87l3439.53 0 0 2333.83 -6668.08 0 0 -7668.29zm0 0z"/>
   <path class="fil3" d="M4500.95 4834.36c0,-460.3 -373.21,-833.51 -833.51,-833.51 -460.3,0 -833.51,373.21 -833.51,833.51 0,460.3 373.21,833.51 833.51,833.51 460.14,-0.57 832.94,-373.37 833.51,-833.51zm-1333.62 0c0,-276.18 223.93,-500.11 500.11,-500.11 276.18,0 500.11,223.93 500.11,500.11 0,276.18 -223.93,500.11 -500.11,500.11 -276.18,0 -500.11,-223.93 -500.11,-500.11zm0 0z"/>
   <path class="fil3" d="M1333.62 8001.7l4667.66 0 0 333.4 -4667.66 0 0 -333.4zm0 0z"/>
   <path class="fil3" d="M1344.23 8668.51l2333.83 0 0 333.4 -2333.83 0 0 -333.4zm0 0z"/>
  </g>
 </g>
</svg>
